# xmcd
#
# Track frame offsets:
#	150
#	19798
#	38470
#	53294
#	72423
#	93351
#	117589
#	133061
#	151149
#	170062
#	193157
#	208835
#
# Disc length: 3049 seconds
#
# Revision: 1
# Processed by: cddbd v1.5.1PL0 Copyright (c) Steve Scherf et al.
# Submitted via: audiograbber 1.83.01
#
DISCID=a30be70c
DTITLE=Gloria Gaynor - I will Survive
DYEAR=2002
DGENRE=Dance
TTITLE0=I Will Survive
TTITLE1=Stop In The Name Of Love
TTITLE2=I Am What I Am
TTITLE3=Runaround Love
TTITLE4=Mack Side
TTITLE5=America
TTITLE6=Even A Fool Would Let Go
TTITLE7=Be Soft With Me Tonight
TTITLE8=For You My Love
TTITLE9=Love Me Real
TTITLE10=Never Can Say Goodbye
TTITLE11=Gloria Gaynor and Chico The Gypsies - I will survive
EXTD=
EXTT0=
EXTT1=
EXTT2=
EXTT3=
EXTT4=
EXTT5=
EXTT6=
EXTT7=
EXTT8=
EXTT9=
EXTT10=
EXTT11=
PLAYORDER=
